<?xml version="1.0" encoding="utf-8"?>
<!-- Generator: Adobe Illustrator 19.0.0, SVG Export Plug-In . SVG Version: 6.00 Build 0)  -->
<svg version="1.1" xmlns="http://www.w3.org/2000/svg" xmlns:xlink="http://www.w3.org/1999/xlink" x="0px" y="0px"
	 viewBox="-279 71.2 417 419" style="enable-background:new -279 71.2 417 419;" xml:space="preserve">
<style type="text/css">
	.st0{fill:#FFFFFF;stroke:#FFFFFF;stroke-width:14.1762;stroke-miterlimit:10;}
	.st1{fill:#475993;stroke:#FFFFFF;stroke-width:16;stroke-miterlimit:10;}
</style>
<g id="Layer_2">
	<rect x="-250" y="106.2" class="st0" width="360" height="381"/>
</g>
<g id="Layer_1">
	<path class="st1" d="M78.7,76.2h-298.6c-30.4,0-55.1,24.7-55.1,55.1v298.6c0,30.4,24.7,55.1,55.1,55.1h147.3l0.3-146.1h-38
		c-4.9,0-8.9-4-9-8.9l-0.2-47.1c0-5,4-9,9-9h37.9v-45.5c0-52.8,32.2-81.6,79.3-81.6h38.6c4.9,0,9,4,9,9v39.7c0,4.9-4,9-9,9l-23.7,0
		c-25.6,0-30.6,12.2-30.6,30v39.4h56.3c5.4,0,9.5,4.7,8.9,10L50.7,331c-0.5,4.5-4.4,7.9-8.9,7.9H-8.7L-8.9,485h87.6
		c30.4,0,55.1-24.7,55.1-55.1V131.3C133.8,100.9,109.1,76.2,78.7,76.2z"/>
</g>
</svg>
